HIERARCHY
ROOT Hips
{
	OFFSET 0.0000 0.0000 0.0000
	CHANNELS 6 Xposition Yposition Zposition Zrotation Xrotation Yrotation
	JOINT Ab
	{
		OFFSET -0.0000 8.0846 -0.0000
		CHANNELS 3 Zrotation Xrotation Yrotation
		JOINT Chest
		{
			OFFSET -0.0000 25.0068 -0.0000
			CHANNELS 3 Zrotation Xrotation Yrotation
			JOINT Neck
			{
				OFFSET -0.0000 25.0068 0.0000
				CHANNELS 3 Zrotation Xrotation Yrotation
				JOINT Head
				{
					OFFSET -0.0000 10.7556 0.0000
					CHANNELS 3 Zrotation Xrotation Yrotation
					End Site
					{
						OFFSET -0.0000 16.6222 0.0000
					}
				}
			}
			JOINT LeftCollar
			{
				OFFSET -0.0000 25.0068 0.0000
				CHANNELS 3 Zrotation Xrotation Yrotation
				JOINT LeftShoulder
				{
					OFFSET 19.5556 -0.0000 0.0000
					CHANNELS 3 Zrotation Xrotation Yrotation
					JOINT LeftElbow
					{
						OFFSET 27.1828 0.0000 0.0000
						CHANNELS 3 Zrotation Xrotation Yrotation
						JOINT LeftWrist
						{
							OFFSET 23.3157 0.0000 0.0000
							CHANNELS 3 Zrotation Xrotation Yrotation
							End Site
							{
								OFFSET 0.0000 -14.6667 0.0000
							}
						}
					}
				}
			}
			JOINT RightCollar
			{
				OFFSET -0.0000 25.0068 0.0000
				CHANNELS 3 Zrotation Xrotation Yrotation
				JOINT RightShoulder
				{
					OFFSET -19.5556 0.0000 0.0000
					CHANNELS 3 Zrotation Xrotation Yrotation
					JOINT RightElbow
					{
						OFFSET -27.1828 0.0000 0.0000
						CHANNELS 3 Zrotation Xrotation Yrotation
						JOINT RightWrist
						{
							OFFSET -23.3157 0.0000 0.0000
							CHANNELS 3 Zrotation Xrotation Yrotation
							End Site
							{
								OFFSET -0.0000 -14.6667 0.0000
							}
						}
					}
				}
			}
		}
	}
	JOINT LeftHip
	{
		OFFSET 11.7333 0.0000 0.0000
		CHANNELS 3 Zrotation Xrotation Yrotation
		JOINT LeftKnee
		{
			OFFSET -0.0000 -40.8688 0.0000
			CHANNELS 3 Zrotation Xrotation Yrotation
			JOINT LeftAnkle
			{
				OFFSET -0.0000 -44.4337 0.0000
				CHANNELS 3 Zrotation Xrotation Yrotation
				End Site
				{
					OFFSET -0.0000 -4.8889 16.6222
				}
			}
		}
	}
	JOINT RightHip
	{
		OFFSET -11.7333 0.0000 0.0000
		CHANNELS 3 Zrotation Xrotation Yrotation
		JOINT RightKnee
		{
			OFFSET -0.0000 -40.8688 0.0000
			CHANNELS 3 Zrotation Xrotation Yrotation
			JOINT RightAnkle
			{
				OFFSET -0.0000 -44.4337 0.0000
				CHANNELS 3 Zrotation Xrotation Yrotation
				End Site
				{
					OFFSET -0.0000 -4.8889 16.6222
				}
			}
		}
	}
}
MOTION
Frames: 23
Frame Time: 0.010000
0.7298 89.1332 142.5468 359.2879 349.7321 176.9119 3.5483 11.2424 1.6483 356.2940 3.5061 2.1145 1.4270 336.6347 0.1313 357.1478 359.6538 359.8087 349.0059 357.0312 35.5022 359.8087 75.9149 326.1860 50.4421 337.7858 318.0201 91.3718 349.1252 21.9189 18.4819 357.9630 347.1764 27.6969 61.8853 46.5648 326.1184 338.8800 62.8945 275.5639 341.7865 19.1720 2.8618 325.6026 356.4083 304.9850 70.5517 45.7823 357.6708 336.1835 21.3181 2.7290 342.4967 2.4346 357.2373 29.2440 13.9457 352.6656 333.5376 334.0016 
1.0003 88.9942 141.5451 359.6442 350.5815 176.8948 3.6265 12.3219 2.0123 355.5430 3.8108 2.5607 2.0877 337.1032 0.0385 357.0021 358.8178 359.5261 350.1885 357.2214 37.3663 10.2237 76.6886 316.6417 54.2412 336.9454 319.3297 91.1564 350.3582 25.2851 17.9188 358.0157 347.0793 21.7866 62.7153 53.0669 325.3533 337.8777 63.7524 274.2474 341.7084 18.9085 3.6840 323.8407 356.5953 300.8804 71.2156 49.2519 359.4428 336.2987 22.2446 3.1153 344.4665 2.3124 357.2694 28.4251 14.3075 352.7590 333.3291 333.8128 
1.2433 88.8120 140.6992 359.9253 350.9632 177.4204 3.5879 13.1369 2.1513 355.3545 3.8324 2.7223 1.7125 337.6420 359.5139 357.4897 358.1862 359.1067 350.9282 357.2576 38.4214 20.2507 77.4054 307.9612 57.6546 336.2726 320.5175 91.3112 351.1991 28.3722 17.0539 358.1280 347.0739 16.7816 63.6033 58.3379 323.5632 336.0985 64.0486 275.7418 342.1461 17.7299 4.0179 321.3238 356.1621 297.3639 71.5041 52.9877 357.5281 334.9762 21.0013 3.3083 345.8018 1.8973 357.4502 27.8237 14.2068 352.7102 333.1632 333.6960 
1.5672 88.5371 139.8693 0.2268 351.1435 177.6400 3.1982 13.6877 2.5210 355.5178 3.9411 3.0658 2.1254 338.4397 359.4611 357.1542 357.1064 358.9734 351.7227 357.4234 39.0746 17.7584 77.2517 311.0362 59.3884 335.6592 319.3702 92.4989 353.3286 30.6128 16.2845 358.2252 347.1648 12.0379 63.4997 63.2285 322.4949 335.1961 64.8944 274.7600 343.0872 15.9170 4.8023 318.7061 356.4743 295.1127 71.7277 55.3610 356.3931 334.0084 20.4508 3.7636 346.6932 1.6955 357.4252 27.5465 13.6411 352.7890 332.9264 334.2101 
1.8181 88.1700 139.0824 0.4496 351.2285 178.5860 3.0281 14.0707 2.4566 355.7997 4.4373 2.9899 1.9967 338.7162 359.0422 356.7595 356.3679 358.5423 351.8180 357.2294 39.9033 26.5886 77.3954 303.9078 62.3677 334.5122 320.2205 91.0358 353.0560 32.4096 15.4573 358.2848 346.5793 7.3890 62.5397 67.9525 321.9731 334.5364 66.2106 274.4325 343.5363 13.8287 4.6478 315.7293 355.4791 292.8732 71.8443 59.0174 355.2654 333.4042 18.5005 3.8472 347.3787 0.3342 357.3820 27.5862 14.1201 352.4424 332.6895 334.0405 
2.0269 87.6801 137.9738 0.6721 352.5041 178.7388 2.9879 15.3288 2.6210 355.3768 5.1390 3.2345 2.8944 339.5345 359.2168 356.2054 355.1721 358.5274 352.3851 357.3539 41.9188 46.8161 77.4460 284.7854 66.8513 334.1671 324.5266 90.3059 352.1948 35.2767 14.8444 358.3613 347.0002 4.4943 61.8143 70.9096 321.6997 333.8583 67.6001 273.3597 344.1147 12.1648 5.1349 314.5882 356.0860 293.4210 72.0252 57.8688 358.3675 334.1466 20.4881 4.0572 349.4574 359.9214 357.4228 27.4878 14.3654 351.8661 332.5813 333.7338 
2.3246 87.2654 136.9713 1.2080 353.5926 178.8029 3.1847 16.6384 2.7088 355.1230 5.8062 3.4267 2.9372 339.8530 359.1720 356.3980 354.3521 358.4687 352.7103 357.3555 42.7742 51.3241 77.4623 281.1444 69.7814 334.2628 325.6886 90.8032 353.0610 38.5239 14.4793 358.3953 347.1453 1.0139 60.6260 74.2697 321.0339 332.7619 68.5646 274.6064 343.1402 12.0565 6.2780 313.4431 356.6307 294.4648 71.5030 56.2064 0.8573 334.2115 21.8042 4.7567 351.1592 359.8777 357.3234 27.8233 16.4462 350.1875 332.9122 331.5018 
2.5681 86.8059 136.2642 1.4703 353.3719 179.4446 3.2861 16.7382 2.4887 355.0644 6.3482 3.2399 2.7814 340.6651 358.9171 356.4664 353.0134 358.2192 352.5812 357.1386 42.9400 51.6709 77.9572 282.3515 72.4088 333.6459 325.4957 90.8539 354.4834 41.2225 14.1126 358.5168 347.9546 0.9232 59.7763 73.7808 320.7736 331.7941 70.5754 275.6731 342.7605 11.6951 6.4414 310.7097 356.5234 296.7665 71.3236 53.2446 3.1145 334.1667 23.4577 5.1011 351.0701 359.0866 357.1636 28.4073 15.1191 351.1685 332.1900 333.6182 
2.8433 86.3494 135.2860 2.1316 353.6560 179.9563 3.6240 16.9284 2.3749 355.3878 7.3039 3.2072 1.9924 341.5979 358.7263 357.2174 351.5055 358.1990 352.4535 356.9289 44.9068 68.7108 76.2095 265.9205 75.2827 334.2916 329.2452 90.6698 353.6458 43.2331 13.7115 358.6002 348.5333 358.6369 58.4164 75.6935 320.6909 331.1389 71.7785 275.3549 342.6339 10.6698 7.2504 308.9730 356.9246 301.0333 70.8270 48.7464 3.5634 335.1012 23.3757 5.8775 351.8671 358.6845 357.1480 28.7453 14.9369 350.5598 331.7360 333.5765 
3.0286 85.8769 134.3254 2.3300 353.8673 179.7818 3.3698 17.2103 2.7176 355.4029 7.9897 3.5562 2.1875 342.7449 358.8732 357.2127 349.7271 358.2946 352.3716 356.7985 45.2131 65.7462 76.4874 268.8359 75.9929 334.6943 328.6922 91.5902 355.1472 45.6417 13.6618 358.6594 349.1415 357.3504 57.2270 76.5457 320.7453 330.6123 72.9945 275.7324 342.5200 10.2021 8.1644 307.6769 358.2021 307.0138 70.0919 42.1874 4.5760 337.1701 23.8646 6.1350 352.4644 358.7371 357.2620 29.2638 15.6392 351.5466 330.7119 333.2431 
3.1282 85.3668 133.1220 2.3947 354.5342 179.2647 3.2068 17.5558 3.0171 355.2393 9.0603 3.8954 1.2864 343.6396 358.6129 357.9059 348.6321 358.2183 352.2083 356.7138 45.1080 63.1905 77.0069 271.1279 76.1748 334.6665 328.0395 92.2149 355.8841 46.6630 13.7253 358.7007 349.6044 355.8516 55.9695 77.6775 320.8807 330.2842 73.8322 275.6835 342.7872 10.0615 9.1309 307.4234 359.7874 312.8307 68.2884 36.8268 4.3755 336.6719 23.9011 6.1161 353.8320 358.9486 357.5303 29.6102 15.9004 350.1789 330.5653 332.7132 
3.3231 84.8999 131.7788 2.7814 354.9086 179.1479 3.3943 17.3619 3.1542 355.2824 10.2039 4.0984 359.8960 344.4516 358.2271 358.9320 347.9552 358.1292 352.1910 356.8006 43.6942 41.5807 78.3761 291.0119 73.5862 334.2675 324.1565 94.0364 356.5158 46.2515 13.9518 358.7201 349.8862 354.5870 54.8085 78.5101 321.3547 330.3851 74.6451 275.2075 343.0384 9.9975 10.1252 307.1206 1.1295 316.7820 66.6198 34.1065 6.0246 336.5424 24.4514 6.4666 355.3140 358.7438 357.7407 29.3367 16.0692 349.5494 330.2275 332.4416 
3.4939 84.4927 130.4475 3.1237 355.2483 178.5477 3.4429 17.4188 3.5447 355.1656 10.8318 4.5397 358.6664 345.0670 358.0483 359.7744 347.7842 358.2000 351.7578 356.5755 43.5932 39.1047 78.6425 293.0336 72.2959 333.7641 323.3390 94.3784 356.1580 44.9894 14.3533 358.7360 350.5351 353.8257 54.1962 78.8653 321.8537 330.6729 74.8110 275.4249 342.7999 9.7986 11.5331 307.3237 2.9754 321.9170 64.9569 28.6046 3.3070 336.7075 23.1206 6.5744 356.9506 358.9055 358.3003 28.6878 16.0638 348.5090 330.7347 332.1996 
3.5833 84.1120 129.0963 3.2017 355.0980 178.2097 3.7224 17.1185 3.4521 354.8088 10.8926 4.5078 356.7095 346.0457 357.6965 1.0979 347.7319 358.2217 352.1283 356.9741 42.3384 38.2079 80.5930 291.7406 71.7609 333.9801 324.4714 94.4039 355.1291 42.8734 14.8574 358.7592 351.2287 353.8351 54.2661 78.4502 322.5985 331.3708 74.7973 275.4296 342.5829 10.1712 12.0893 307.3574 3.9598 326.1504 62.7429 24.4672 2.5704 337.1519 22.7328 6.5378 357.6652 358.3721 358.2130 28.7560 16.5084 348.2911 330.3261 332.3824 
3.6493 83.7590 127.6321 3.1718 354.8818 177.5983 3.4777 16.5273 3.7320 354.7800 11.0597 4.7466 355.2760 346.3302 357.7146 1.8472 348.2418 358.4737 351.4282 356.6106 40.9405 16.2088 80.8293 312.8359 68.3023 334.5019 321.2816 96.5498 356.3419 41.7792 15.4983 358.8089 352.2482 354.6293 54.6303 77.2909 323.6339 332.5452 74.3126 275.3342 341.8161 10.9872 12.6862 307.9035 5.0757 329.9780 60.1646 20.8962 1.7175 337.3088 22.2685 6.4047 358.5048 357.9375 357.9375 28.6386 17.3347 347.9403 330.2322 332.7140 
3.7630 83.4508 125.9580 3.2744 355.0958 176.6892 3.1679 15.9738 4.1515 354.9049 12.0396 5.1382 353.8329 344.9407 357.7148 2.2609 349.7057 358.7412 350.7386 356.3464 40.3546 14.0010 81.6686 312.7813 66.8913 335.2216 322.9299 96.0491 354.4115 38.8502 16.0843 358.8631 352.8367 355.8916 54.7911 75.9300 325.0007 334.1438 73.5297 274.7388 341.5594 12.0133 13.4939 309.5143 6.4670 333.7822 57.7176 16.8570 1.3540 337.8075 22.0162 6.4902 0.0120 358.1095 357.6410 28.3920 17.9582 347.7841 329.6283 332.6625 
3.7744 83.2316 124.3388 3.1453 355.1013 175.9034 3.0377 15.7935 4.2745 354.4440 11.4899 5.2557 353.3102 345.5136 357.9787 2.1456 349.5779 359.0390 349.9767 356.2253 37.3130 336.8765 77.1158 348.4147 61.0048 336.2893 317.0409 98.4040 356.5849 35.6050 17.0196 358.8859 353.4659 358.0335 56.0627 73.4822 326.2890 335.7443 72.0224 274.7065 341.6921 13.6904 13.3707 311.1964 6.8813 337.3288 54.8043 13.5842 1.7958 337.9922 22.3218 6.2435 1.2037 358.0991 357.2530 28.2885 21.0399 347.3716 330.3273 330.6231 
3.7377 82.9127 122.7568 2.9090 354.1288 175.1753 3.0558 14.3153 4.3362 353.6438 11.5315 5.3632 352.7965 344.6331 358.2138 2.3820 350.1787 359.3994 349.5600 356.3020 35.9001 327.5616 75.6317 355.3101 58.3544 336.9496 318.1430 96.6009 353.8823 31.7053 17.8559 358.9102 353.7825 0.1270 57.1708 71.4660 327.6745 337.6575 69.8309 273.5670 342.3643 13.9017 13.0346 312.0219 7.0456 340.9202 52.0393 10.0784 1.7653 338.2696 22.6428 5.8821 1.2960 358.4592 357.4761 28.1536 20.7450 347.6247 328.8520 330.5856 
3.6677 82.6480 120.9479 2.7901 353.9271 174.5486 3.3508 13.5483 4.1865 352.6698 11.4729 5.3209 352.2387 343.6435 358.3543 2.8819 350.7114 359.7240 348.4794 356.0061 34.7583 323.9515 74.1832 357.5577 55.3534 338.7057 319.7489 97.3766 352.3930 28.8717 18.6798 358.9235 354.0055 2.6920 58.7895 68.9535 328.5120 339.1610 66.6140 273.6200 342.0217 15.7421 12.0801 314.2326 5.6347 343.3463 48.9390 8.9311 357.8745 336.7485 31.7176 5.5400 2.3523 358.8018 357.4153 27.9864 20.7604 349.4220 329.1673 331.8046 
3.5907 82.3887 119.1209 2.5852 353.4878 173.9003 3.4737 12.4656 4.1184 351.6618 11.3210 5.3249 352.2352 342.0999 358.6572 3.1245 351.9316 0.1004 347.2797 355.7840 32.6457 318.3285 69.4249 1.9234 51.1042 341.0007 319.9433 97.8024 352.4340 26.7595 19.6701 358.8942 354.0316 5.9300 59.9177 65.6478 329.9958 341.4360 63.5648 272.2352 341.9625 16.4358 10.9438 316.5022 4.2686 346.5055 45.6371 6.4289 356.9628 337.0149 31.2966 5.1780 2.8818 359.1890 357.2706 28.4257 20.7506 350.6185 329.1704 332.5553 
3.5331 82.1355 117.2088 2.4862 353.2142 173.3595 3.5562 11.5234 3.9819 350.8691 10.8630 5.2097 352.4162 341.2614 358.9297 3.3760 352.5035 0.3718 346.5272 355.8798 30.1929 312.9524 63.3635 5.0429 46.4718 343.6303 321.3996 98.3859 350.6606 22.4227 20.6678 358.8442 353.8059 9.5764 60.5414 61.9160 332.1817 344.2234 60.0185 271.1981 341.2577 17.4438 9.7210 319.3832 2.3376 349.1330 42.3049 4.3314 355.1883 337.5855 31.0321 4.9460 3.3846 359.3974 357.1578 29.0341 18.2237 352.6165 329.5056 335.4664 
3.4269 81.9407 115.6235 2.1293 351.7893 172.8512 3.2684 9.7971 3.8951 350.4588 9.9259 5.0039 352.9920 339.7420 359.0588 2.7040 354.1492 0.4483 345.5723 355.9276 27.6764 309.3423 57.1764 6.4802 42.2882 346.1845 324.2812 98.6568 349.4974 18.7185 21.3787 358.7363 353.3853 14.0003 61.2509 57.5028 333.9133 346.2508 56.1523 271.7057 340.5420 19.8915 8.6535 319.8364 1.4077 349.5634 41.8363 5.2926 3.0701 348.6836 25.4853 4.6259 1.9291 359.2459 356.2670 30.6760 19.7801 354.8806 330.9089 336.5900 
3.4307 81.7582 113.7382 2.4334 352.1242 172.7493 3.3483 9.5886 3.7448 350.1665 9.3242 4.8281 353.5753 338.9220 359.1098 2.7825 354.6773 0.4177 344.4585 356.0490 24.2439 306.9393 48.6702 7.2139 37.8414 348.7980 327.3293 97.9960 348.3330 14.6888 22.0127 358.7241 353.6728 23.1160 60.7564 48.1069 336.5474 348.7720 53.1363 271.8478 339.1002 25.2367 9.0219 321.1555 1.2641 347.3936 43.1203 2.8667 5.4932 347.0082 27.7766 4.9919 2.3597 358.8477 355.3358 32.6530 19.9442 357.0645 331.9494 338.2469 
